# xmcd CD database file
#
# Track frame offsets:
#	150
#	16857
#	38350
#	56737
#	78760
#	98682
#	117602
#	135587
#	152322
#	169080
#	187420
#	208865
#	229205
#	247122
#	264892
#	281517
#
# Disc length: 3976 seconds
#
# Revision: 0
# Processed by: cddbd v1.5.2PL0 Copyright (c) Steve Scherf et al.
# Submitted via: CDex 1.81
#
DISCID=d30f8610
DTITLE=Herman Schoonderwalt - The Romantic Sax Album
DYEAR=1995
DGENRE=Jazz
TTITLE0=Miss You Like Crazy
TTITLE1=Here We Are
TTITLE2=Don't It Make My Brown Eyes Blue
TTITLE3=Circle Of Life (Lion King)
TTITLE4=Let's Share Our Love Together
TTITLE5=Mornin'
TTITLE6=La Solitudine
TTITLE7=Promise Me
TTITLE8=Fragile
TTITLE9=After The Love Has Gone
TTITLE10=One Day In Your Life
TTITLE11=Cherish
TTITLE12=Sorry Seems To Be The Hardest Word
TTITLE13=If You Leave Me Now
TTITLE14=Wind Beneath My Wings
TTITLE15=Warm and Tender Moments
EXTD=YEAR: 1995
EXTT0=
EXTT1=
EXTT2=
EXTT3=
EXTT4=
EXTT5=
EXTT6=
EXTT7=
EXTT8=
EXTT9=
EXTT10=
EXTT11=
EXTT12=
EXTT13=
EXTT14=
EXTT15=
PLAYORDER=
